# xmcd
#
# Track frame offsets: 
#        150
#        22817
#        35722
#        48477
#        63837
#        79107
#        95542
#        107454
#        125285
#        140125
#        158405
#        174575
#        188440
#        207867
#        221922
#        236827
#        249040
#        267487
#        280562
#        297117
#
# Disc length: 4145 seconds
#
# Revision: 2
# Processed by: cddbd v1.5.2PL0 Copyright (c) Steve Scherf et al.
# Submitted via: ExactAudioCopy v1.0b4
#
DISCID=13102f14
DTITLE=Various Artist - Music First - Vol. 2
DYEAR=1994
DGENRE=Country
TTITLE0=Joe Diffie - Third Rock From The Sun
TTITLE1=Ricky Van Shelton - Wherever She Is
TTITLE2=Patty Loveless - I Try To Think About Elvis
TTITLE3=James House - A Real Good Way To Wind Up Lonesome
TTITLE4=Collin Raye - Man Of My World
TTITLE5=Wade Hayes - Old Enough To Know Better
TTITLE6=Joy Lynn White - Wild Love
TTITLE7=Ken Mellons - I Can Bring Her Back
TTITLE8=Gibson/Miller Band - Red, White And Blue Collar
TTITLE9=Larry Stewart - Heart Like A Hurricane
TTITLE10=Joe Diffie - Pickup Man
TTITLE11=Rick Trevino - Dr. Time
TTITLE12=Doug Stone - Dream High
TTITLE13=Tammy Wynette - Girl Thang
TTITLE14=Larry Stewart - Mama Needs Someone To Hold Her
TTITLE15=Ken Mellons - Jukebox Junkie
TTITLE16=Collin Raye - If I Were You
TTITLE17=Joy Lynn White - Tonight The Heartache's On Me
TTITLE18=James House - Until You Set Me Free
TTITLE19=Patty Loveless - Here I Am
EXTD=
EXTT0=
EXTT1=
EXTT2=
EXTT3=
EXTT4=
EXTT5=
EXTT6=
EXTT7=
EXTT8=
EXTT9=
EXTT10=
EXTT11=
EXTT12=
EXTT13=
EXTT14=
EXTT15=
EXTT16=
EXTT17=
EXTT18=
EXTT19=
PLAYORDER=
